<svg width="41" height="57" viewBox="0 0 41 57" fill="none" xmlns="http://www.w3.org/2000/svg">
<path fill-rule="evenodd" clip-rule="evenodd" d="M20.5 0C9.16643 0 0 9.077 0 20.3C0 32.393 12.9443 49.068 18.2743 55.419C19.4457 56.811 21.5836 56.811 22.755 55.419C28.0557 49.068 41 32.393 41 20.3C41 9.077 31.8336 0 20.5 0ZM20.5 27.55C16.4586 27.55 13.1786 24.302 13.1786 20.3C13.1786 16.298 16.4586 13.05 20.5 13.05C24.5414 13.05 27.8214 16.298 27.8214 20.3C27.8214 24.302 24.5414 27.55 20.5 27.55Z" fill="white"/>
</svg>
